<svg width="32" height="36" viewBox="0 0 32 36" fill="none" xmlns="http://www.w3.org/2000/svg">
<path d="M18.2779 10.6845C17.9491 10.6845 17.6824 10.9995 17.6824 11.3876C17.6824 11.7754 17.9491 12.0905 18.2779 12.0905C18.6067 12.0905 18.8734 11.7754 18.8734 11.3876C18.8734 10.9995 18.6067 10.6845 18.2779 10.6845V10.6845Z" fill="#332208"/>
<path d="M14.6652 24.4171C14.8977 24.1422 14.8977 23.6973 14.6652 23.4223C14.4325 23.1482 14.0556 23.1482 13.8226 23.4223C13.5904 23.6973 13.5904 24.1422 13.8226 24.4171C14.0556 24.6912 14.4325 24.6912 14.6652 24.4171Z" fill="#332208"/>
<path d="M7.50584 35.7921C7.73675 36.0668 8.11269 36.0698 8.34663 35.7979L11.235 32.4405C11.7257 31.8615 11.8749 31.0043 11.6591 30.2591L12.2804 29.5522C12.6149 29.1709 13.0553 28.9608 13.5208 28.9608H21.4407C22.8457 28.9608 24.1737 28.3242 25.1805 27.1681C25.222 27.1206 24.866 27.6153 30.5836 19.5524C31.4316 18.3686 31.3047 16.591 30.3005 15.5893C29.3026 14.597 27.8077 14.7395 26.9573 15.903L23.4419 20.1663C22.998 19.5216 22.3211 19.1198 21.5897 19.1198H14.9464C14.0011 18.6532 12.998 18.4169 11.9631 18.4169C9.09525 18.4169 6.58985 19.9792 5.24508 22.9115C4.67873 22.7848 4.08142 22.987 3.65171 23.494L0.817627 26.8479C0.586245 27.1217 0.585779 27.5647 0.816696 27.8391L7.50584 35.7921ZM11.9629 19.8227C12.8753 19.8227 13.7576 20.0394 14.5856 20.4667C14.661 20.5057 14.7422 20.5258 14.8244 20.5258H21.5897C22.2356 20.5258 22.7813 21.1473 22.7813 21.9315C22.7813 22.7068 22.2468 23.3375 21.5897 23.3375H16.729C16.4001 23.3375 16.1333 23.6522 16.1333 24.0403C16.1333 24.4287 16.4001 24.7432 16.729 24.7432H21.5897C22.9037 24.7432 23.9726 23.4819 23.9726 21.9315C23.9726 21.8079 23.9652 21.6854 23.9517 21.564C27.3523 17.4394 27.8319 16.8599 27.8524 16.8311C28.2769 16.2397 29.0307 16.1647 29.5321 16.6635C30.034 17.1642 30.0975 18.053 29.6718 18.6477L24.3283 26.1848C23.548 27.0687 22.5236 27.5551 21.4407 27.5551H13.5208C12.7448 27.5551 12.0101 27.9053 11.4528 28.5406L10.9465 29.1171L6.27932 23.6105C7.37013 21.1959 9.41695 19.8227 11.9629 19.8227V19.8227ZM4.49484 24.4875C4.6913 24.2556 4.99299 24.2139 5.23251 24.3886C5.32353 24.4539 10.4191 30.4811 10.4505 30.5308C10.6248 30.8079 10.5999 31.2015 10.3958 31.4426L7.93345 34.3049L2.07976 27.3453L4.49484 24.4875Z" fill="#332208"/>
<path d="M9.93767 14.9022H24.2357C25.2212 14.9022 26.0229 13.9562 26.0229 12.7933C26.0229 11.0215 26.0229 3.38297 26.0229 2.10883C26.0229 0.945924 25.2212 0 24.2357 0H9.93767C8.95208 0 8.15039 0.945924 8.15039 2.10883V12.7933C8.15039 13.9562 8.95208 14.9022 9.93767 14.9022ZM24.8313 5.62336H9.34199V4.21766H24.8313V5.62336ZM24.2357 13.4964H9.93767C9.60922 13.4964 9.34199 13.1809 9.34199 12.7933V7.02934H24.8313V12.7933C24.8313 13.1809 24.5641 13.4964 24.2357 13.4964ZM9.93767 1.40598H24.2357C24.5641 1.40598 24.8313 1.72129 24.8313 2.10883V2.81168H9.34199V2.10883C9.34199 1.72129 9.60922 1.40598 9.93767 1.40598Z" fill="#332208"/>
<path d="M23.0441 10.6845H20.6611C20.3322 10.6845 20.0654 10.9992 20.0654 11.3876C20.0654 11.7757 20.3322 12.0905 20.6611 12.0905H23.0441C23.3732 12.0905 23.64 11.7757 23.64 11.3876C23.64 10.9992 23.3732 10.6845 23.0441 10.6845Z" fill="#332208"/>
</svg>
