<svg width="41" height="32" viewBox="0 0 41 32" fill="none" xmlns="http://www.w3.org/2000/svg">
<path d="M24.1863 6.34919C24.1879 5.56763 23.9959 4.80307 23.6347 4.15228C23.2735 3.50149 22.7592 2.99375 22.1569 2.69332C21.5547 2.39288 20.8916 2.31328 20.2516 2.46457C19.6116 2.61586 19.0235 2.99126 18.5616 3.54323C18.0998 4.0952 17.785 4.79893 17.6572 5.56533C17.5293 6.33174 17.5942 7.12635 17.8435 7.84859C18.0928 8.57082 18.5153 9.1882 19.0576 9.62258C19.6 10.0569 20.2376 10.2888 20.89 10.2887C21.7628 10.2888 22.6001 9.87408 23.218 9.13553C23.836 8.39698 24.1842 7.39492 24.1863 6.34919V6.34919ZM20.89 9.12511C20.4321 9.12319 19.985 8.95877 19.605 8.6526C19.2251 8.34643 18.9294 7.91224 18.7552 7.40487C18.5811 6.89749 18.5364 6.33968 18.6267 5.80186C18.717 5.26405 18.9383 4.77035 19.2626 4.38311C19.587 3.99587 19.9998 3.73246 20.449 3.62612C20.8982 3.51979 21.3636 3.57531 21.7865 3.78567C22.2094 3.99603 22.5708 4.35181 22.825 4.80806C23.0793 5.26432 23.215 5.8006 23.215 6.34919C23.2132 7.08641 22.9674 7.7927 22.5316 8.3131C22.0957 8.8335 21.5053 9.12552 20.89 9.12511Z" fill="#332208"/>
<path d="M10.1731 16.1068C9.72318 16.1081 9.28363 16.2691 8.91003 16.5695C8.53642 16.8699 8.24552 17.2963 8.07407 17.7947C7.90261 18.2931 7.85831 18.8412 7.94674 19.3697C8.03517 19.8983 8.25238 20.3836 8.57092 20.7643C8.88946 21.145 9.29504 21.4041 9.73643 21.5088C10.1778 21.6135 10.6352 21.5591 11.0508 21.3525C11.4664 21.1459 11.8215 20.7964 12.0714 20.3481C12.3213 19.8997 12.4546 19.3728 12.4546 18.8337C12.4532 18.1099 12.2122 17.4163 11.7845 16.9051C11.3568 16.3939 10.7773 16.1068 10.1731 16.1068V16.1068ZM10.1731 20.397C9.91528 20.3958 9.66352 20.303 9.44964 20.1304C9.23576 19.9579 9.06934 19.7133 8.97139 19.4275C8.87345 19.1418 8.84837 18.8276 8.89932 18.5248C8.95027 18.222 9.07497 17.944 9.25767 17.726C9.44037 17.508 9.67288 17.3598 9.92586 17.3C10.1788 17.2401 10.4409 17.2715 10.679 17.39C10.9172 17.5085 11.1206 17.7089 11.2638 17.9658C11.4069 18.2228 11.4833 18.5248 11.4833 18.8337C11.4823 19.2491 11.3438 19.647 11.0981 19.9402C10.8525 20.2333 10.5198 20.3978 10.1731 20.3974V20.397Z" fill="#332208"/>
<path d="M24.5864 21.1765C24.2008 21.1776 23.8241 21.3155 23.5039 21.5729C23.1837 21.8304 22.9343 22.1957 22.7874 22.6228C22.6404 23.0499 22.6024 23.5196 22.6782 23.9726C22.7539 24.4256 22.94 24.8415 23.213 25.1678C23.486 25.4941 23.8335 25.7162 24.2118 25.8059C24.59 25.8956 24.982 25.8491 25.3382 25.672C25.6944 25.495 25.9987 25.1955 26.2129 24.8113C26.427 24.4271 26.5413 23.9755 26.5413 23.5135C26.5402 22.8932 26.3337 22.2988 25.9672 21.8607C25.6007 21.4226 25.1041 21.1765 24.5864 21.1765ZM24.5864 24.6868C24.3928 24.6858 24.2039 24.6161 24.0435 24.4865C23.883 24.357 23.7581 24.1734 23.6847 23.9589C23.6112 23.7444 23.5925 23.5086 23.6307 23.2814C23.669 23.0541 23.7626 22.8456 23.8998 22.682C24.0369 22.5184 24.2114 22.4072 24.4013 22.3623C24.5911 22.3175 24.7878 22.341 24.9665 22.43C25.1452 22.5189 25.2979 22.6693 25.4053 22.8622C25.5127 23.055 25.5701 23.2816 25.5701 23.5135C25.5692 23.8252 25.4651 24.1238 25.2807 24.3438C25.0963 24.5637 24.8466 24.687 24.5864 24.6867V24.6868Z" fill="#332208"/>
<path d="M34.9711 13.2186C35.3567 13.2176 35.7334 13.0797 36.0536 12.8223C36.3738 12.5648 36.6231 12.1995 36.7701 11.7724C36.917 11.3453 36.955 10.8756 36.8793 10.4226C36.8035 9.96961 36.6174 9.5537 36.3444 9.2274C36.0715 8.90109 35.7239 8.67904 35.3456 8.58929C34.9674 8.49954 34.5754 8.54613 34.2192 8.72316C33.8631 8.90019 33.5587 9.19972 33.3445 9.58392C33.1304 9.96811 33.0161 10.4197 33.0161 10.8817C33.0173 11.502 33.2237 12.0964 33.5903 12.5345C33.9568 12.9726 34.4533 13.2187 34.9711 13.2186V13.2186ZM34.9711 9.70839C35.1646 9.70942 35.3535 9.77911 35.514 9.90867C35.6744 10.0382 35.7993 10.2218 35.8727 10.4363C35.9462 10.6508 35.965 10.8865 35.9267 11.1138C35.8884 11.3411 35.7948 11.5496 35.6577 11.7132C35.5205 11.8768 35.346 11.988 35.1562 12.0328C34.9663 12.0777 34.7696 12.0542 34.5909 11.9652C34.4122 11.8762 34.2595 11.7259 34.1521 11.533C34.0447 11.3402 33.9874 11.1135 33.9874 10.8817C33.9882 10.5699 34.0923 10.2713 34.2767 10.0514C34.4611 9.83139 34.7108 9.70805 34.9711 9.70839V9.70839Z" fill="#332208"/>
<path d="M36.387 15.4714L37.6679 13.4262C38.1612 12.6544 38.4066 11.696 38.3592 10.7256C38.2439 8.60818 36.7963 6.94934 35.0636 6.94934C33.3309 6.94934 31.8836 8.60818 31.768 10.7251C31.743 11.2058 31.7929 11.6878 31.9152 12.1466L23.9054 12.3226L25.1415 10.3476C25.9305 9.11485 26.3232 7.58334 26.2481 6.0325C26.163 4.44611 25.6002 2.95066 24.6641 1.82407C24.1818 1.2458 23.6091 0.787061 22.9788 0.474078C22.3484 0.161095 21.6728 0 20.9904 0C20.3081 0 19.6325 0.161095 19.0021 0.474078C18.3718 0.787061 17.7991 1.2458 17.3168 1.82407C16.3809 2.95039 15.818 4.44548 15.7329 6.03153C15.6503 7.5104 16.0419 9.04085 16.839 10.3466L17.9083 12.0542L6.52591 12.144C6.42517 12.1448 6.32713 12.1831 6.24537 12.2537C6.16361 12.3242 6.10218 12.4234 6.06959 12.5376L0.732656 31.23C0.707662 31.3176 0.700472 31.411 0.711682 31.5026C0.722893 31.5942 0.752181 31.6813 0.797113 31.7566C0.842045 31.8319 0.901325 31.8932 0.970029 31.9356C1.03873 31.9779 1.11488 32 1.19214 32H40.0421C40.1183 32 40.1934 31.9785 40.2614 31.9373C40.3293 31.8961 40.3882 31.8363 40.4334 31.7627C40.4785 31.6892 40.5085 31.604 40.5211 31.5139C40.5336 31.4239 40.5283 31.3316 40.5055 31.2445L36.387 15.4714ZM32.7368 10.8014C32.8087 9.47993 33.6985 8.11296 35.0632 8.11296C36.4279 8.11296 37.3177 9.48022 37.3897 10.803C37.4215 11.4953 37.2445 12.1783 36.891 12.7272L35.0632 15.646L33.239 12.733C32.8881 12.1794 32.7105 11.4958 32.7372 10.8014H32.7368ZM32.3854 13.2996C32.4097 13.3419 32.434 13.384 32.4591 13.4257L34.6752 16.965C34.7204 17.0373 34.7791 17.0959 34.8465 17.1363C34.914 17.1767 34.9883 17.1978 35.0637 17.1978C35.1391 17.1978 35.2135 17.1767 35.2809 17.1363C35.3483 17.0959 35.407 17.0373 35.4522 16.965L35.669 16.6188L36.2211 18.7334L28.6915 18.7355L28.1459 13.3934L32.3854 13.2996ZM17.6198 9.65447C16.9608 8.57492 16.6349 7.31588 16.7023 6.10862C16.7721 4.8035 17.2349 3.57309 18.0049 2.64607C18.3969 2.1762 18.8624 1.80348 19.3748 1.54918C19.8871 1.29488 20.4362 1.164 20.9908 1.164C21.5453 1.164 22.0944 1.29488 22.6068 1.54918C23.1191 1.80348 23.5846 2.1762 23.9767 2.64607C24.747 3.57349 25.2101 4.80452 25.2798 6.11027C25.3391 7.383 25.0146 8.63888 24.3653 9.64875L20.9908 15.0374L17.6198 9.65447ZM1.87153 30.8364L4.39434 22.0001L7.26665 21.9896L9.8976 26.1909C9.94284 26.2632 10.0015 26.3218 10.0689 26.3622C10.1364 26.4026 10.2107 26.4236 10.2861 26.4236C10.3615 26.4236 10.4358 26.4026 10.5033 26.3622C10.5707 26.3218 10.6294 26.2632 10.6746 26.1909L12.7709 22.843L12.7967 30.8364H1.87153ZM12.6063 21.1673L10.286 24.8722L7.96935 21.173C7.51392 20.4263 7.2885 19.5585 7.33496 18.7275C7.4261 17.0529 8.55493 15.3207 10.286 15.3207C12.0171 15.3207 13.1459 17.0529 13.2372 18.7292C13.2778 19.6062 13.0538 20.4715 12.6063 21.1673V21.1673ZM20.2601 24.7371C20.2142 24.7912 20.1778 24.8557 20.153 24.9269C20.1281 24.9981 20.1154 25.0745 20.1154 25.1516L20.118 30.8364H13.7679L13.7374 21.1988C14.0897 20.4191 14.2524 19.5367 14.2069 18.6518C14.0697 16.1315 12.3477 14.1571 10.2866 14.1571C8.22552 14.1571 6.50357 16.1315 6.36638 18.6508C6.32948 19.3974 6.4416 20.1438 6.69345 20.8281L4.72748 20.8352L6.87742 13.3049L18.6343 13.2125L20.6029 16.3561C20.6481 16.4283 20.7068 16.487 20.7742 16.5274C20.8416 16.5678 20.916 16.5888 20.9914 16.5888C21.0668 16.5888 21.1411 16.5678 21.2085 16.5274C21.276 16.487 21.3346 16.4283 21.3799 16.3561L23.1666 13.5022L27.1697 13.4142L27.7797 19.3875C27.7941 19.5285 27.8511 19.6583 27.9399 19.7525C28.0287 19.8467 28.1431 19.8986 28.2617 19.8986L36.525 19.8964L37.7435 24.5632L27.8784 24.5833C27.9647 24.1834 27.9971 23.7695 27.9744 23.3574C27.8591 21.2398 26.4115 19.581 24.6788 19.581C22.9461 19.581 21.4984 21.2398 21.3832 23.3564C21.3612 23.7699 21.3952 24.1849 21.4839 24.5853L20.6083 24.5697C20.5438 24.5676 20.4796 24.5814 20.4197 24.6102C20.3598 24.6389 20.3055 24.6821 20.2601 24.7371V24.7371ZM26.5064 25.3589L24.6787 28.2777L22.8545 25.3648C22.5035 24.8113 22.3257 24.1278 22.3522 23.4333C22.4242 22.1117 23.3141 20.7449 24.6787 20.7449C26.0433 20.7449 26.9332 22.1121 27.0053 23.435C27.0369 24.1272 26.8599 24.8101 26.5064 25.359V25.3589ZM21.0892 30.8364L21.0869 25.7419L21.9054 25.7565C21.958 25.8586 22.0142 25.9588 22.0741 26.0571L24.2902 29.5964C24.3354 29.6687 24.3941 29.7273 24.4615 29.7677C24.529 29.8081 24.6033 29.8292 24.6787 29.8292C24.7541 29.8292 24.8285 29.8081 24.8959 29.7677C24.9633 29.7273 25.022 29.6687 25.0672 29.5964L27.283 26.0582C27.3463 25.9573 27.4055 25.8539 27.4605 25.7479L38.0471 25.7263L39.3813 30.8364H21.0892Z" fill="#332208"/>
</svg>
