<svg width="52" height="24" viewBox="0 0 52 24" fill="none" xmlns="http://www.w3.org/2000/svg">
<path d="M22.054 8.9989H25.4425V10.999H22.054V8.9989Z" fill="#332208"/>
<path d="M50.9807 6.00937L45.2255 5.03941C44.176 4.27858 43.087 3.59749 41.9641 2.99981C38.256 1.01758 34.2314 -0.00526887 30.1602 2.04093e-05H29.1604C24.356 0.00408898 19.6284 1.42689 15.4087 4.13862L12.5042 6.00856C9.10426 6.05372 5.76983 7.12092 2.81602 9.10803C1.6156 9.92053 0.874383 11.428 0.872314 13.0607V18.998C0.872314 19.5505 1.25154 19.9981 1.71971 19.9981H4.56459C5.4899 23.1134 8.37994 24.7539 11.0197 23.6619C12.4728 23.061 13.615 21.7126 14.1242 19.9981H36.7605C37.6858 23.1134 40.5758 24.7539 43.2156 23.6619C44.6683 23.061 45.8108 21.7126 46.32 19.9981H46.6241C46.732 19.9981 46.8389 19.9741 46.9392 19.9269L49.6834 18.6274C50.9093 18.0545 51.7123 16.6541 51.7078 15.0987V6.99927C51.7078 6.50208 51.3979 6.08016 50.9807 6.00937ZM12.6652 18.7983C12.2904 20.9624 10.5002 22.3583 8.66643 21.916C6.83235 21.4738 5.64952 19.361 6.02426 17.1964C6.39935 15.0323 8.18964 13.6364 10.0234 14.0787C11.6013 14.4591 12.7341 16.0975 12.7338 17.9984C12.7338 18.2669 12.7107 18.535 12.6652 18.7983ZM27.9845 17.9984H14.4282C14.4282 14.6849 12.1525 11.9988 9.34489 11.9988C6.53725 11.9988 4.26121 14.6849 4.26121 17.9984H2.56676V13.0607C2.5678 12.1448 2.98356 11.299 3.65721 10.8441C6.4221 8.98109 9.55036 8.00055 12.7338 7.99933H27.9845V17.9984ZM27.9845 5.99961H16.0568L16.2202 5.89423C19.8425 3.57105 23.8661 2.25404 27.9845 2.04369V5.99961ZM29.6789 1.99975H30.1585C33.5729 1.99527 36.9563 2.76017 40.1276 4.25376L38.6483 5.99961H29.6789V1.99975ZM44.8611 18.7983C44.4863 20.9624 42.696 22.3583 40.8619 21.916C39.0282 21.4738 37.8454 19.361 38.2201 17.1964C38.5949 15.0323 40.3855 13.6364 42.2192 14.0787C43.7972 14.4591 44.93 16.0975 44.9297 17.9984C44.9297 18.2669 44.9066 18.535 44.8611 18.7983ZM50.0133 8.99899H47.4715V10.9991H50.0133V15.0987C50.0154 15.8355 49.6348 16.4987 49.0542 16.7692L46.6241 17.9211C46.6241 17.8291 46.6141 17.738 46.6089 17.646C46.6038 17.5541 46.602 17.4463 46.5938 17.3462C46.5851 17.2461 46.5683 17.146 46.5548 17.0463C46.541 16.9462 46.531 16.8461 46.5141 16.7554C46.4972 16.6643 46.4724 16.5634 46.4503 16.4682C46.4283 16.3734 46.4114 16.2773 46.3859 16.1842C46.3607 16.0914 46.33 16.0023 46.3014 15.9112C46.2725 15.8204 46.2463 15.7265 46.2166 15.6361C46.187 15.5462 46.147 15.4644 46.1115 15.3794C46.076 15.2944 46.0411 15.2012 46.0015 15.1153C45.9615 15.0295 45.9167 14.9563 45.8784 14.8765C45.8405 14.7964 45.7939 14.7052 45.7457 14.6235C45.6971 14.5413 45.6523 14.4766 45.6057 14.4025C45.5592 14.3285 45.5064 14.2414 45.4523 14.1645C45.3982 14.0876 45.3475 14.0274 45.2947 13.9643C45.2423 13.9017 45.1837 13.8166 45.1255 13.7467C45.0669 13.6767 45.0093 13.6214 44.951 13.5595C44.8924 13.4977 44.8297 13.4244 44.7652 13.3593C44.7011 13.2946 44.6356 13.2446 44.5715 13.1876C44.507 13.1307 44.4425 13.0696 44.375 13.0163C44.307 12.9635 44.2308 12.9167 44.1581 12.8605C44.085 12.8044 44.0257 12.7604 43.9571 12.7177C43.8885 12.6746 43.803 12.6294 43.7251 12.5855C43.6472 12.5415 43.5862 12.5025 43.5141 12.4667C43.4421 12.4305 43.3445 12.3926 43.26 12.3568C43.1752 12.3206 43.1201 12.2925 43.048 12.2657C42.9515 12.2307 42.8525 12.2055 42.7539 12.1766C42.6895 12.1587 42.6278 12.1347 42.5626 12.1188C42.4585 12.0936 42.3516 12.0798 42.2458 12.0614C42.183 12.0517 42.123 12.0354 42.0603 12.0285C41.8907 12.0086 41.7214 11.9976 41.5435 11.9976C38.7369 12.0008 36.4626 14.6849 36.4598 17.9972H29.6793V7.99893H38.9989C39.2237 7.99893 39.4392 7.89355 39.5978 7.70599L41.7948 5.11305C42.717 5.63099 43.6137 6.20995 44.4808 6.8471C44.5808 6.92074 44.6925 6.96916 44.8093 6.98909L50.0133 7.86588V8.99899Z" fill="#332208"/>
</svg>
